<svg width="139" height="121" viewBox="0 0 139 121" fill="none" xmlns="http://www.w3.org/2000/svg">
<path d="M138.304 120.5H115.227V104.524H125.582L126.062 103.506C129.393 96.4538 134.57 93.1336 138.304 91.7915V120.5ZM126.588 67.2456C129.073 78.9614 138.304 78.6065 138.304 84.6421V88.062C133.81 89.3614 127.482 93.0003 123.355 100.973H115.227V80.0269C115.227 80.0269 124.102 76.1213 124.812 67.2456H126.588ZM126.588 62.2749H128.718V63.6948H126.588V66.5356H125.167V63.6948H123.037V62.2749H125.167V60.855H126.588V62.2749Z" fill="#365939"/>
<path d="M94.4121 104.524C97.3456 104.524 100.206 104.524 102.928 104.524C104.809 108.478 105.948 113.444 105.995 119.662V120.5H99.96C99.2015 113.5 93.8426 108.25 87.9795 107.045C84.2166 106.272 80.1896 107.152 77.0928 110.301C74.8392 112.593 73.1942 115.968 72.4111 120.5H54.8711V104.523C65.2289 104.523 80.633 104.524 94.4121 104.524ZM79.624 112.792C81.7859 110.593 84.5496 109.965 87.2656 110.523C91.5824 111.41 95.6328 115.262 96.376 120.5H76.0195C76.7423 116.838 78.0809 114.361 79.624 112.792ZM112.031 120.5H109.546V119.634C109.501 113.719 108.526 108.717 106.808 104.524H112.031V120.5ZM54.8711 92.3188C63.8018 89.6855 76.7624 88.1194 87.3672 91.4985C92.6688 93.188 97.3202 96.0915 100.641 100.661C100.715 100.763 100.789 100.868 100.862 100.973H54.8711V92.3188ZM67.2969 78.2515H75.3057L75.7607 77.937L84.9912 71.5708L93.1973 77.8833L93.6758 78.2515H102.801V71.5063H115.227V76.8315L112.031 79.3169V100.973H105.068C104.584 100.135 104.065 99.3343 103.513 98.5737C99.6557 93.2661 94.3031 89.9824 88.4453 88.1157C77.3092 84.5672 64.125 86.0593 54.8711 88.6265V71.5063H67.2969V78.2515ZM51.6758 89.9673H38.8945V79.3169H51.6758V89.9673ZM50.2559 76.4761H40.6699L43.5107 60.145H47.0605L50.2559 76.4761ZM95.3447 74.7007H94.8828L86.1309 67.9683L85.1055 67.1802L84.041 67.9146L74.7529 74.3198V63.6948H95.3447V74.7007ZM62.4902 53.0444C63.9103 55.8846 72.031 59.9991 69.5908 64.7603C67.8939 68.071 64.7882 69.1538 61.0703 69.021C57.598 68.897 55.3881 68.3105 53.2598 64.7603C50.7789 60.0201 57.8733 56.5947 60.3604 53.0444C60.3771 53.0444 61.4336 53.0444 62.4902 53.0444ZM110.258 53.0444C111.678 55.8846 119.798 59.9992 117.358 64.7603C115.662 68.0709 112.556 69.1537 108.838 69.021C105.366 68.897 103.156 68.3105 101.027 64.7603C98.5465 60.0201 105.641 56.5947 108.128 53.0444C108.15 53.0444 109.204 53.0444 110.258 53.0444ZM87.501 36.7134C89.772 41.2545 102.756 47.8334 98.8545 55.4458C96.1413 60.7394 91.1751 62.4706 85.2305 62.2583C79.6785 62.06 76.1443 61.1224 72.7412 55.4458C68.7751 47.867 80.118 42.3898 84.0947 36.7134C84.0947 36.7134 85.7979 36.7134 87.501 36.7134ZM45.2852 51.269C46.4616 51.269 47.416 51.868 47.416 53.0444C47.416 53.5907 47.2082 54.0873 46.8701 54.4644C47.2082 54.8413 47.4159 55.338 47.416 55.8843C47.416 57.0607 46.4616 58.0151 45.2852 58.0151C44.1089 58.0149 43.1553 57.0606 43.1553 55.8843C43.1554 55.3382 43.3623 54.8413 43.7002 54.4644C43.3623 54.0874 43.1553 53.5905 43.1553 53.0444C43.1553 51.8681 44.1089 51.2692 45.2852 51.269ZM61.9717 46.6538H63.3916V47.6011H61.9717V52.3345H60.5518V47.6011H59.1318V46.6538H60.5518V45.2339H61.9717V46.6538ZM109.546 46.6538H110.966V47.6011H109.546V52.3345H108.126V47.6011H106.706V46.6538H108.126V45.2339H109.546V46.6538ZM86.1143 26.772H88.2441V28.1919H86.1143V35.2925H83.9834V28.1919H81.8535V26.772H83.9834V24.6421H86.1143V26.772Z" fill="#4D8051"/>
<path d="M0.196289 108.864C2.94244 109.102 6.2532 109.824 9.25586 111.345C12.7989 113.139 15.857 115.999 17.1631 120.5H0.196289V108.864ZM0.196289 104.867C13.713 99.4468 24.3163 104.595 28.2314 108.044C29.6766 111.749 30.7375 115.888 31.2598 120.5H20.8291C19.3851 114.308 15.3359 110.443 10.8594 108.177C7.27911 106.364 3.38745 105.545 0.196289 105.303V104.867ZM52.0312 93.5176V120.5H34.8301C34.2736 115.261 33.0652 110.556 31.3818 106.35C29.4577 101.542 26.9125 97.1726 24.0254 93.5176H52.0312ZM0.196289 81.2324C5.66991 83.0088 12.7918 86.5987 18.8613 92.9678C21.2509 95.4753 23.489 98.5466 25.4062 102.019C19.5505 99.1573 10.6395 97.3047 0.196289 101.067V81.2324ZM33.2148 89.9678H28.2441V80.3818H33.2148V89.9678ZM24.6934 80.3818V89.9678H20.8955C16.6161 85.6218 11.9009 82.5216 7.51855 80.3818H24.6934ZM27.8887 68.666H30.374V63.3398L33.2148 67.2451V76.832H0.196289V67.2451L4.45703 63.3398V68.666H6.58691V61.9199H27.8887V68.666ZM11.5576 69.376H15.4629V65.8252H11.5576V69.376ZM18.6582 69.376H22.5635V65.8252H18.6582V69.376ZM22.9189 38.4883L25.0488 36.3584V49.4941L27.8887 47.0088V59.0801H24.3389V53.7549C24.3389 52.9707 23.7031 52.3341 22.9189 52.334C22.1347 52.334 21.498 52.9706 21.498 53.7549V59.0801H18.6582V53.7549C18.6582 52.9706 18.0225 52.334 17.2383 52.334C16.454 52.334 15.8184 52.9706 15.8184 53.7549V59.0801H12.9775V53.7549C12.9775 52.9706 12.3419 52.334 11.5576 52.334C10.7733 52.334 10.1377 52.9706 10.1377 53.7549V59.0801H6.58691V47.0088L9.07227 49.4941V36.3584L11.2031 38.4883L17.5928 7.95605L22.9189 38.4883ZM12.9775 40.2637C12.1934 40.2639 11.5576 40.8994 11.5576 41.6836V46.6543C11.5579 47.4383 12.1935 48.074 12.9775 48.0742C13.7617 48.0742 14.3972 47.4384 14.3975 46.6543V41.6836C14.3975 40.8993 13.7618 40.2637 12.9775 40.2637ZM17.2383 40.2637C16.454 40.2637 15.8184 40.8993 15.8184 41.6836V46.6543C15.8186 47.4384 16.4542 48.0742 17.2383 48.0742C18.0224 48.0742 18.658 47.4384 18.6582 46.6543V41.6836C18.6582 40.8993 18.0225 40.2637 17.2383 40.2637ZM21.498 40.2637C20.714 40.264 20.0781 40.8995 20.0781 41.6836V46.6543C20.0784 47.4382 20.7141 48.0739 21.498 48.0742C22.2822 48.0742 22.9187 47.4384 22.9189 46.6543V41.6836C22.9189 40.8993 22.2824 40.2637 21.498 40.2637ZM18.4697 2.95312H21.3076L19.0117 4.46973L19.8887 6.92285L17.5928 5.40625L15.2979 6.92285L16.1748 4.46973L13.8789 2.95312H16.7168L17.5928 0.5L18.4697 2.95312Z" fill="#3D6641"/>
<path d="M0.196289 120.5V108.429C12.9774 110.185 17.3561 117.208 17.9478 120.5H0.196289Z" fill="#73AB77"/>
</svg>
